<?xml version="1.0" encoding="UTF-8"?>
<svg id="Calque_3" data-name="Calque 3" xmlns="http://www.w3.org/2000/svg" viewBox="0 0 498.71 221.43">
  <defs>
    <style>
      .cls-1 {
        fill-rule: evenodd;
      }

      .cls-1, .cls-2 {
        fill: #fff;
      }
    </style>
  </defs>
  <path class="cls-1" d="M82.42,68.82h-10.38c-4.77,0-8.62,3.86-8.62,8.62v77.27c0,4.76,3.85,8.62,8.62,8.62h10.38c4.76,0,8.62-3.86,8.62-8.62v-77.27c0-4.76-3.86-8.62-8.62-8.62ZM79.23,151.15c0,1.28-1.03,2.31-2.3,2.31s-2.31-1.03-2.31-2.31v-69.13c0-.64.26-1.21.68-1.63s.99-.67,1.63-.67c1.27,0,2.3,1.03,2.3,2.3v69.13Z"/>
  <path class="cls-1" d="M123.11,69.4v85.31c0,4.76-3.86,8.62-8.62,8.62h-10.38c-4.77,0-8.63-3.86-8.63-8.62v-85.31h11.52v82.34c0,1.27,1.03,2.3,2.3,2.3s2.3-1.03,2.3-2.3v-82.34h11.51Z"/>
  <path class="cls-1" d="M31.59,126v.5c0-.17.03-.34.08-.5h-.08ZM58.61,93.69v.35s0,.05-.01.08h.03v-.43h-.02ZM47.42,93.69h-.02v.43h.03s-.01-.05-.01-.08v-.35Z"/>
  <path class="cls-1" d="M47.42,94.04v-.35h-.02v-11.17c0-1.26-1.03-2.28-2.3-2.28-.64,0-1.21.25-1.63.66-.41.42-.67.99-.67,1.62v14.98l4.6,4.57,11.23,11.15v41.54c0,4.73-3.86,8.57-8.62,8.57h-9.8c-4.76,0-8.62-3.84-8.62-8.57v-28.26c0-.17.03-.34.08-.5.21-.74.89-1.28,1.7-1.28h7.63c.81,0,1.49.54,1.7,1.28h.1v25.23c0,1.27,1.03,2.29,2.3,2.29s2.3-1.02,2.3-2.29v-32.73l-4.6-4.57-11.21-11.15v-24.81c0-4.73,3.86-8.57,8.62-8.57h9.8c4.76,0,8.62,3.84,8.62,8.57v15.72h-.02v.35s0,.05-.01.08c-.03.95-.82,1.7-1.77,1.7h-7.63c-.95,0-1.74-.75-1.77-1.7-.01-.03-.01-.05-.01-.08Z"/>
  <path class="cls-1" d="M427.62,69.41h-10.39c-4.76,0-8.62,3.84-8.62,8.57v76.8c0,4.73,3.86,8.57,8.62,8.57h10.39c4.76,0,8.62-3.84,8.62-8.57v-76.8c0-4.73-3.86-8.57-8.62-8.57ZM424.43,151.23c0,1.26-1.03,2.29-2.3,2.29s-2.3-1.02-2.3-2.29v-68.71c0-1.26,1.03-2.29,2.3-2.29s2.3,1.02,2.3,2.29v68.71Z"/>
  <path class="cls-1" d="M284.14,69.41h-15.21c-2.1,0-3.79,1.69-3.79,3.77v90.16h11.21v-80.81c0-1.26,1.03-2.29,2.3-2.29s2.3,1.02,2.3,2.29v80.81h11.81v-85.36c0-4.73-3.86-8.57-8.62-8.57Z"/>
  <path class="cls-1" d="M315.65,69.4h-15.21c-2.1,0-3.79,1.69-3.79,3.77v90.16h11.21v-80.81c0-1.26,1.03-2.29,2.3-2.29s2.3,1.02,2.3,2.29v80.81h11.81v-85.36c0-4.73-3.86-8.57-8.62-8.57Z"/>
  <path class="cls-1" d="M460.68,69.41h-15.21c-2.1,0-3.79,1.69-3.79,3.77v90.16h11.21v-80.81c0-1.26,1.03-2.29,2.3-2.29s2.3,1.02,2.3,2.29v80.81h11.81v-85.36c0-4.73-3.86-8.57-8.62-8.57Z"/>
  <path class="cls-1" d="M123.11,69.4v85.36c0,4.73-3.86,8.57-8.62,8.57h-10.39c-4.76,0-8.62-3.84-8.62-8.57v-85.36h11.52v81.83c0,1.26,1.03,2.29,2.3,2.29s2.3-1.02,2.3-2.29v-81.83h11.51Z"/>
  <path class="cls-1" d="M127.72,69.99v5.49c0,1.69,1.38,3.06,3.08,3.06h3.81v81.98c0,1.55,1.27,2.81,2.83,2.81h5.69c1.56,0,2.83-1.26,2.83-2.81v-81.98h3.81c1.7,0,3.08-1.37,3.08-3.06v-5.49h-25.12Z"/>
  <path class="cls-1" d="M218.24,122.97v27.75c0,1.26-1.03,2.29-2.3,2.29s-2.3-1.02-2.3-2.29v-68.71c0-1.26,1.03-2.29,2.3-2.29s2.3,1.02,2.3,2.29v10.52h11.51v-14.56c0-4.73-3.86-8.57-8.62-8.57h-10.39c-4.76,0-8.62,3.84-8.62,8.57v76.79c0,4.73,3.86,8.57,8.62,8.57h10.39c4.76,0,8.62-3.84,8.62-8.57v-31.8h-11.51Z"/>
  <path class="cls-1" d="M185.02,69.4v93.93h-5.94c-2.12,0-3.83-1.74-3.83-3.87v-45.82c0-1.28-1.03-2.32-2.3-2.32-.63,0-1.21.26-1.63.68-.42.42-.68,1-.68,1.65v49.69h-5.94c-2.11,0-3.83-1.74-3.83-3.87v-90.06h9.77v31.63h.02c.16,1.13,1.13,2,2.29,2s2.12-.87,2.28-2h.02v-31.63h9.77Z"/>
  <path class="cls-1" d="M352.09,100.49v1.89c0,1.94-1.57,3.51-3.51,3.51h-5.12v47.13c.59-.47,1.34-.75,2.16-.75h1.88c1.94,0,3.51,1.57,3.51,3.51v5.14c0,1.33-1.08,2.41-2.41,2.41h-16.76v-93.93h17.05v9.27h-5.43v18.32h5.12c1.94,0,3.51,1.57,3.51,3.5Z"/>
  <polyline class="cls-2" points="58.63 112.91 47.4 101.69 47.4 101.68 47.11 101.39"/>
  <path class="cls-1" d="M252.64,69.33h-10.39c-4.76,0-8.62,3.86-8.62,8.62v76.69c0,4.76,3.86,8.62,8.62,8.62h10.39c4.76,0,8.62-3.86,8.62-8.62v-76.69c0-4.76-3.86-8.62-8.62-8.62ZM247.45,155.81c-.62-36.91-1.12-38.73-11.34-40.97,10.22-2.24,10.72-4.05,11.34-40.97.62,36.91,1.12,38.73,11.34,40.97-10.22,2.24-10.72,4.05-11.34,40.97Z"/>
  <rect class="cls-2" x="391.02" y="69.27" width="11.73" height="94.05" rx="2.64" ry="2.64"/>
  <path class="cls-1" d="M384.98,158.3l-1.45-7.24h0l-6.98-34.76,7.74-40.32.41-2.06.83-4.12c-.19-.39-.59-.66-1.05-.66h-8.56c-1.04,0-1.92.61-2.34,1.49-.19.29-.33.62-.4.98l-2.75,14.3-1.3-6.48-1.57-7.79c-.05-.27-.14-.52-.27-.74-.35-1.02-1.31-1.75-2.45-1.75h-8.56c-.46,0-.86.27-1.05.66l.83,4.12,1.45,7.24,1.81,9.01,5.26,26.19-7.19,37.47-.93,4.65-.83,4.12c.19.39.59.66,1.05.66h8.56c.73,0,1.39-.3,1.86-.79.43-.37.75-.88.87-1.49l2.73-14.23,2.86,14.2c.23,1.12,1.14,1.93,2.22,2.08.04,0,.09,0,.14.01.09,0,.17.02.26.02.01,0,.02,0,.04,0h8.56c.46,0,.86-.27,1.05-.66l-.83-4.12Z"/>
</svg>